<svg xmlns="http://www.w3.org/2000/svg" viewBox="0 0 512 512" role="img" aria-labelledby="title desc">
  <title id="title">Azure IaC Guardrail</title>
  <desc id="desc">A circular Azure-blue badge with a magnifying lens inspecting connected infrastructure blocks and a compliance check.</desc>
  <defs>
    <linearGradient id="bg1" x1="72" y1="54" x2="432" y2="458" gradientUnits="userSpaceOnUse">
      <stop stop-color="#0EA5E9"/>
      <stop offset=".52" stop-color="#0078D4"/>
      <stop offset="1" stop-color="#063B73"/>
    </linearGradient>
    <linearGradient id="glass1" x1="151" y1="132" x2="340" y2="335" gradientUnits="userSpaceOnUse">
      <stop stop-color="#E7F8FF" stop-opacity=".38"/>
      <stop offset="1" stop-color="#79D7FF" stop-opacity=".12"/>
    </linearGradient>
  </defs>
  <circle cx="256" cy="256" r="232" fill="url(#bg1)"/>
  <circle cx="256" cy="256" r="218" fill="none" stroke="#FFFFFF" stroke-opacity=".2" stroke-width="4"/>
  <circle cx="226" cy="215" r="116" fill="url(#glass1)" stroke="#FFFFFF" stroke-width="24"/>
  <path d="m310 299 99 99" fill="none" stroke="#FFFFFF" stroke-width="34" stroke-linecap="round"/>
  <g fill="#FFFFFF">
    <rect x="151" y="154" width="54" height="54" rx="12"/>
    <rect x="247" y="154" width="54" height="54" rx="12"/>
    <rect x="199" y="242" width="54" height="54" rx="12"/>
  </g>
  <path d="M205 181h42M178 208v17c0 10 8 17 18 17h3M274 208v17c0 10-8 17-18 17h-3" fill="none" stroke="#FFFFFF" stroke-width="12" stroke-linecap="round"/>
  <circle cx="291" cy="295" r="48" fill="#B8F3D0" stroke="#063B73" stroke-width="8"/>
  <path d="m270 295 14 14 29-34" fill="none" stroke="#087A46" stroke-width="12" stroke-linecap="round" stroke-linejoin="round"/>
</svg>
