<svg xmlns="http://www.w3.org/2000/svg" viewBox="0 0 512 512" role="img" aria-labelledby="title description">
  <title id="title">Azure IaC Guardrail</title>
  <description id="description">A shield protecting connected infrastructure blocks over an Azure-blue cloud.</description>
  <defs>
    <linearGradient id="background" x1="64" y1="32" x2="448" y2="480" gradientUnits="userSpaceOnUse">
      <stop stop-color="#0A67B5"/>
      <stop offset="1" stop-color="#003E73"/>
    </linearGradient>
    <linearGradient id="shield" x1="256" y1="116" x2="256" y2="408" gradientUnits="userSpaceOnUse">
      <stop stop-color="#72D7FF"/>
      <stop offset="1" stop-color="#19A4E0"/>
    </linearGradient>
  </defs>
  <rect width="512" height="512" rx="104" fill="url(#background)"/>
  <path d="M112 338c-37 0-67-29-67-65 0-33 25-60 58-64 10-62 65-109 131-109 54 0 101 31 123 77 7-2 15-3 23-3 49 0 88 39 88 87 0 43-32 79-74 86H112Z" fill="#FFFFFF" opacity=".14"/>
  <path d="M256 91c47 34 94 45 139 49v104c0 88-52 151-139 188-87-37-139-100-139-188V140c45-4 92-15 139-49Z" fill="url(#shield)" stroke="#FFFFFF" stroke-width="14" stroke-linejoin="round"/>
  <g fill="#FFFFFF">
    <rect x="169" y="190" width="58" height="58" rx="10"/>
    <rect x="285" y="190" width="58" height="58" rx="10"/>
    <rect x="227" y="286" width="58" height="58" rx="10"/>
  </g>
  <path d="M227 219h58M198 248v21c0 10 8 17 17 17h12M314 248v21c0 10-8 17-17 17h-12" fill="none" stroke="#FFFFFF" stroke-width="14" stroke-linecap="round"/>
  <path d="m231 317 18 18 39-43" fill="none" stroke="#005A92" stroke-width="14" stroke-linecap="round" stroke-linejoin="round"/>
</svg>
